<svg width="13" height="13" viewBox="0 0 13 13" fill="none" xmlns="http://www.w3.org/2000/svg">
<path d="M8.12508 1.625H3.25008C2.8005 1.625 2.41591 1.89854 2.25341 2.28583L0.62029 6.10458C0.57154 6.22917 0.541748 6.36187 0.541748 6.5V7.53729L0.547165 7.54271L0.541748 7.58333C0.541748 8.18187 1.02654 8.66667 1.62508 8.66667H5.04571L4.52841 11.1421C4.51758 11.1962 4.50946 11.2531 4.50946 11.3127C4.50946 11.5375 4.60154 11.7406 4.74779 11.8869L5.32466 12.4583L8.89154 8.89146C9.08654 8.69375 9.20841 8.42292 9.20841 8.125V2.70833C9.20841 2.10979 8.72362 1.625 8.12508 1.625ZM10.2917 1.625V8.125H12.4584V1.625H10.2917Z" fill="white"/>
</svg>
