<svg width="394" height="429" viewBox="0 0 394 429" fill="none" xmlns="http://www.w3.org/2000/svg">
<g clip-path="url(#clip0_27_1827)">
<path d="M121.1 403.8C144.3 383.7 146.7 350.7 142.7 321.6C142 316.7 142 311.6 139.3 307.5C136.5 303.5 130.8 301.1 126.7 303.6C123.3 305.7 122.1 310 120.5 313.7C118.3 318.6 114.7 322.9 110.2 325.8C107.3 327.7 103.5 329.1 100.3 327.7C95.9001 325.8 94.8001 320.1 94.3001 315.2C93.4001 306.2 92.5001 297.1 91.7001 288.1C91.2001 283.3 90.7001 278.3 88.8001 273.9C86.8001 269.5 83.0001 265.5 78.3001 264.7C73.6001 263.9 68.1001 267.1 67.6001 272C67.4001 274 68.0001 276 68.1001 278C68.2001 280 67.5001 282.3 65.6001 283.1C63.7001 283.9 61.6001 282.7 60.1001 281.4C54.6001 277 50.6001 271.1 46.7001 265.1C42.9001 259.2 39.1001 253.1 34.1001 248.2C29.0001 243.3 22.3001 239.8 15.3001 240.1C8.30005 240.4 1.40005 245.5 0.300053 252.5C-0.799947 259.5 3.90005 266 8.90005 271.1C16.2001 278.6 24.5001 285.1 33.6001 290.2C35.2001 291.1 37.0001 292.1 37.8001 293.9C39.2001 297 36.5001 300.5 33.4001 301.9C29.9001 303.5 26.0001 303.5 22.2001 304.3C18.5001 305.1 14.5001 307.2 13.5001 310.9C12.0001 316.1 16.7001 320.8 21.1001 323.8C30.0001 329.8 39.8001 334.2 50.1001 336.8C53.8001 337.7 57.7001 338.5 60.8001 340.7C63.9001 342.9 66.1001 347.1 64.7001 350.7C63.3 354.3 59.0001 355.8 55.2001 355.5C51.4001 355.2 47.8001 353.5 44.2001 352.5C37.3001 350.7 28.7001 352 25.1001 358.2C22.7001 362.3 23.0001 367.6 24.9001 371.9C26.8001 376.3 30.1001 379.8 33.5001 383.1C45.5001 394.5 60.2001 403.2 76.2001 406.9C91.9 411 106.3 411 121.1 403.8Z" fill="#F5F5F5"/>
<path d="M123.7 425.4C121.5 414 117.5 400.6 111.7 386.3C105.9 372 98.2 356.9 89.6 341.3C87.4 337.4 85.3 333.6 83.2 329.8C81.1 326 79 322.3 76.7 318.8C72.2 311.7 67.3 305.3 62.5 299.3C57.7 293.3 52.9 287.8 48.4 282.7C43.9 277.6 39.6 272.9 35.5 268.8C27.3 260.6 19.9 254.7 14.7 250.9C12.1 249 10 247.6 8.60002 246.6C7.90002 246.2 7.40002 245.8 7.00002 245.5C6.60002 245.3 6.40002 245.2 6.40002 245.2C6.40002 245.2 6.60002 245.4 6.90002 245.6C7.30002 245.9 7.80002 246.3 8.50002 246.7C9.90002 247.7 11.9 249.2 14.5 251.1C19.7 255 27 260.9 35.1 269.2C39.2 273.3 43.4 278 47.9 283.1C52.4 288.2 57.1 293.8 61.9 299.7C66.7 305.7 71.5 312.1 76 319.2C78.2 322.7 80.3 326.4 82.4 330.2C84.5 334 86.6 337.8 88.8 341.7C97.4 357.2 105 372.3 110.9 386.5C116.8 400.7 120.8 414 123.1 425.4" fill="#E0E0E0"/>
<path d="M76.5 318.8C76.6 318.8 76.6 318.1 76.8 316.7C76.9 315.3 77 313.4 77.1 310.9C77.3 306 77.3 299.2 77.3 291.8C77.3 284.3 77.4 277.6 77.7 272.7C77.8 270.3 77.9 268.3 78 266.9C78.1 265.5 78.1 264.8 78.1 264.8C78 264.8 77.9 265.5 77.7 266.9C77.5 268.3 77.3 270.2 77.1 272.7C76.7 277.6 76.4 284.4 76.4 291.8C76.4 299.2 76.4 305.8 76.4 310.9C76.4 313.2 76.4 315.1 76.4 316.7C76.4 318 76.5 318.8 76.5 318.8Z" fill="#E0E0E0"/>
<path d="M13.1001 313.6C13.1001 313.7 14.0001 313.7 15.6001 313.6C17.2001 313.6 19.5001 313.5 22.4001 313.6C28.2001 313.6 36.1001 313.9 44.9001 314.7C53.7001 315.4 61.6001 316.5 67.3001 317.4C70.2001 317.8 72.5001 318.2 74.0001 318.5C75.6001 318.8 76.5001 318.9 76.5001 318.8C76.5001 318.7 75.6001 318.5 74.1001 318.1C72.5001 317.7 70.2001 317.2 67.4001 316.7C61.7001 315.6 53.8001 314.5 45.0001 313.8C36.2001 313.1 28.2001 312.8 22.4001 313C19.5001 313 17.2001 313.2 15.6001 313.3C13.9001 313.4 13.1001 313.5 13.1001 313.6Z" fill="#E0E0E0"/>
<path d="M110.8 385.2C110.8 385.2 110.9 384.9 111.1 384.4C111.3 383.8 111.6 383 111.9 382C112.6 379.9 113.6 376.9 114.7 373.2C117 365.8 119.8 355.4 122.7 343.9C125.6 332.4 128.4 322 130.5 314.5C131.5 310.9 132.4 307.9 133 305.6C133.3 304.6 133.5 303.8 133.7 303.2C133.8 302.6 133.9 302.4 133.9 302.3C133.9 302.3 133.8 302.6 133.6 303.1C133.4 303.7 133.1 304.5 132.8 305.5C132.1 307.6 131.1 310.6 130 314.3C127.7 321.7 124.9 332.1 122 343.6C119.1 355.1 116.3 365.5 114.2 373C113.2 376.6 112.3 379.6 111.7 381.9C111.4 382.9 111.2 383.7 111 384.3C110.8 384.9 110.8 385.2 110.8 385.2Z" fill="#E0E0E0"/>
<path d="M25.3 367.1C25.3 367.1 25.6001 367.2 26.2001 367.4C26.9001 367.5 27.7001 367.7 28.7001 368C31.0001 368.5 34.1001 369.2 37.9001 370C45.6001 371.7 56.3 374.1 68.1 376.7C79.9 379.4 90.6001 381.7 98.3 383.2C102.2 383.9 105.3 384.5 107.5 384.9C108.5 385.1 109.3 385.2 110 385.3C110.6 385.4 110.9 385.4 110.9 385.4C110.9 385.4 110.6 385.3 110 385.1C109.3 385 108.5 384.8 107.5 384.5C105.2 384 102.1 383.3 98.3 382.5C90.6001 380.8 79.9 378.4 68.1 375.8C56.3 373.1 45.6001 370.8 37.9001 369.3C34.0001 368.6 30.9001 368 28.7001 367.6C27.7001 367.4 26.9001 367.3 26.2001 367.2C25.6001 367.1 25.3 367 25.3 367.1Z" fill="#E0E0E0"/>
<path d="M97.3 182.8C96.6 182.8 95.8 182.4 95.5 181.7L91.2 172.7C90.9 172.1 90.9 171.5 91.2 170.9C91.5 170.3 92 169.9 92.6 169.8C94.2 169.5 95.7 168.5 96.7 167C97.6 165.6 97.9 164 97.6 162.6C97.3 161.2 96.2 159.9 94.8 159.1C93.3 158.2 91.4 158 89.9 158.4C86.8 159.3 84.5 163 85 166.4C85.2 167.5 84.4 168.5 83.3 168.7C82.2 168.9 81.2 168.1 81 167C80.2 161.6 83.7 156.1 88.7 154.6C91.3 153.8 94.2 154.2 96.8 155.6C99.2 157 100.9 159.2 101.5 161.6C102.1 164.1 101.6 166.8 100.1 169.1C99 170.8 97.5 172.1 95.8 172.9L99.1 179.9C99.6 180.9 99.2 182.1 98.2 182.6C97.9 182.7 97.6 182.8 97.3 182.8Z" fill="#E0E0E0"/>
<path d="M101.7 185.4C102.1 186.2 101.8 187.2 101 187.6C100.2 188 99.1999 187.7 98.7999 186.9C98.3999 186.1 98.6999 185.1 99.4999 184.7C100.3 184.3 101.2 184.6 101.7 185.4Z" fill="#E0E0E0"/>
<path d="M42.3999 152.5C41.8999 152.5 41.3999 152.2 41.0999 151.7L38.0999 145.4C37.8999 145 37.8999 144.5 38.0999 144.1C38.2999 143.7 38.6999 143.4 39.0999 143.4C40.1999 143.2 41.2999 142.5 41.9999 141.4C42.5999 140.4 42.7999 139.3 42.5999 138.3C42.3999 137.3 41.5999 136.4 40.5999 135.9C39.4999 135.3 38.1999 135.1 37.1999 135.4C34.9999 136.1 33.3999 138.6 33.7999 141C33.8999 141.8 33.3999 142.5 32.5999 142.6C31.7999 142.7 31.0999 142.2 30.9999 141.4C30.4999 137.7 32.8999 133.8 36.3999 132.7C38.1999 132.2 40.2999 132.4 41.9999 133.4C43.6999 134.4 44.8999 135.9 45.2999 137.6C45.6999 139.3 45.3999 141.3 44.2999 142.9C43.4999 144.1 42.4999 145 41.2999 145.5L43.5999 150.4C43.8999 151.1 43.5999 151.9 42.8999 152.3C42.7999 152.5 42.5999 152.5 42.3999 152.5Z" fill="#F5F5F5"/>
<path d="M45.3999 154.3C45.6999 154.9 45.4999 155.6 44.8999 155.8C44.2999 156.1 43.5999 155.9 43.3999 155.3C43.1999 154.7 43.2999 154 43.8999 153.8C44.3999 153.6 45.0999 153.8 45.3999 154.3Z" fill="#F5F5F5"/>
<path d="M291.9 155.9C292.1 156.4 292.1 157 291.7 157.4L287.3 162.8C287 163.1 286.6 163.3 286.2 163.3C285.8 163.3 285.4 163.1 285.1 162.7C284.4 161.8 283.3 161.1 282.1 161C281 160.8 279.9 161.1 279.1 161.8C278.3 162.4 277.8 163.5 277.7 164.6C277.6 165.8 278 167.1 278.7 167.9C280.2 169.6 283.2 169.9 285.2 168.6C285.8 168.2 286.7 168.4 287.1 169C287.5 169.7 287.3 170.5 286.7 170.9C283.5 173 279 172.4 276.6 169.7C275.3 168.3 274.7 166.3 274.9 164.3C275 162.4 275.9 160.6 277.3 159.5C278.7 158.4 280.6 157.9 282.5 158.1C283.9 158.3 285.2 158.8 286.2 159.7L289.6 155.5C290.1 154.9 291 154.8 291.6 155.3C291.7 155.6 291.8 155.7 291.9 155.9Z" fill="#F5F5F5"/>
<path d="M292.2 152.4C292.6 151.9 293.3 151.8 293.8 152.2C294.3 152.6 294.4 153.3 294 153.8C293.6 154.3 292.9 154.4 292.4 154C292 153.7 291.9 152.9 292.2 152.4Z" fill="#F5F5F5"/>
<path d="M277.2 25.5001C277.4 26.0001 277.4 26.6001 277 27.0001L272.6 32.4001C272.3 32.7001 271.9 32.9001 271.5 32.9001C271.1 32.9001 270.7 32.7001 270.4 32.3001C269.7 31.4001 268.6 30.7001 267.4 30.6001C266.3 30.4001 265.2 30.7001 264.4 31.4001C263.6 32.0001 263.1 33.1001 263 34.2001C262.9 35.4001 263.3 36.7001 264 37.5001C265.5 39.2001 268.5 39.5001 270.5 38.2001C271.1 37.8001 272 38.0001 272.4 38.6001C272.8 39.3001 272.6 40.1001 272 40.5001C268.8 42.6001 264.3 42.0001 261.9 39.3001C260.6 37.9001 260 35.9001 260.2 33.9001C260.3 32.0001 261.2 30.2001 262.6 29.1001C264 28.0001 265.9 27.5001 267.8 27.7001C269.2 27.9001 270.5 28.4001 271.5 29.3001L274.9 25.1001C275.4 24.5001 276.3 24.4001 276.9 24.9001C277 25.1001 277.1 25.3001 277.2 25.5001Z" fill="#F5F5F5"/>
<path d="M277.6 22C278 21.5 278.7 21.4 279.2 21.8C279.7 22.2 279.8 22.9 279.4 23.4C279 23.9 278.3 24 277.8 23.6C277.3 23.2 277.2 22.5 277.6 22Z" fill="#F5F5F5"/>
<path d="M166.2 45.5C166.9 45.5 167.5 45.9 167.8 46.5L171.7 54.7C171.9 55.2 171.9 55.8 171.7 56.3C171.4 56.8 171 57.2 170.4 57.3C168.9 57.6 167.6 58.5 166.7 59.8C165.9 61 165.6 62.5 165.9 63.8C166.2 65.1 167.1 66.2 168.5 67C169.9 67.8 171.6 68 173 67.6C175.8 66.8 177.9 63.4 177.4 60.3C177.3 59.3 178 58.4 179 58.2C180 58.1 180.9 58.8 181.1 59.8C181.8 64.7 178.6 69.7 174.1 71.1C171.7 71.8 169.1 71.5 166.8 70.2C164.6 69 163.1 67 162.5 64.7C161.9 62.4 162.4 60 163.8 57.9C164.8 56.4 166.2 55.2 167.7 54.5L164.7 48.2C164.3 47.3 164.6 46.2 165.6 45.8C165.7 45.6 166 45.5 166.2 45.5Z" fill="#E0E0E0"/>
<path d="M162.3 43.2C161.9 42.5 162.2 41.6 162.9 41.2C163.6 40.8 164.5 41.1 164.9 41.8C165.3 42.5 165 43.4 164.3 43.8C163.6 44.2 162.7 43.9 162.3 43.2Z" fill="#E0E0E0"/>
<path d="M301.9 207.3C302.6 207.3 303.2 207.7 303.5 208.3L307.4 216.5C307.6 217 307.6 217.6 307.4 218.1C307.1 218.6 306.7 219 306.1 219.1C304.6 219.4 303.3 220.3 302.4 221.6C301.6 222.8 301.3 224.3 301.6 225.6C301.9 226.9 302.8 228 304.2 228.8C305.6 229.6 307.3 229.8 308.7 229.4C311.5 228.6 313.6 225.2 313.1 222.1C313 221.1 313.7 220.2 314.7 220C315.7 219.9 316.6 220.6 316.8 221.6C317.5 226.5 314.3 231.5 309.8 232.9C307.4 233.6 304.8 233.3 302.5 232C300.3 230.8 298.8 228.8 298.2 226.5C297.6 224.2 298.1 221.8 299.5 219.7C300.5 218.2 301.9 217 303.4 216.3L300.4 210C300 209.1 300.3 208 301.3 207.6C301.3 207.4 301.6 207.3 301.9 207.3Z" fill="#E0E0E0"/>
<path d="M298 205C297.6 204.3 297.9 203.4 298.6 203C299.3 202.6 300.2 202.9 300.6 203.6C301 204.3 300.7 205.2 300 205.6C299.2 206 298.3 205.7 298 205Z" fill="#E0E0E0"/>
<path d="M329.2 260.3C329.2 260.3 321.5 254.4 310.3 273C299.1 291.6 294.6 302.5 294.6 302.5C294.6 302.5 291.7 306.4 289.1 303.5C286.5 300.7 283.2 292.9 278.4 293.9C273.4 295 271.4 300.3 271.8 308.4C272.2 316.5 272.3 334.3 272.3 335.9C272.3 337.5 271.2 339.7 269.2 338.1C267.1 336.4 255.6 321.6 248.9 327.5C242.2 333.4 246.9 355.8 247.4 358.3C247.9 360.8 247.3 361.8 246.1 362.3C244.9 362.8 241.5 357.5 238 353.4C234.5 349.3 229.8 345.2 226.2 348.9C222.6 352.6 220.4 369 234.1 396.9L241.3 409.4L255.8 409.6C286.8 408.2 300.1 398.3 301.6 393.4C303.1 388.5 297.2 386.3 292 385.3C286.7 384.2 280.4 383.9 280.3 382.6C280.2 381.3 280.8 380.4 283.2 379.6C285.6 378.8 307.5 372.1 309.4 363.4C311.3 354.7 292.7 351.7 290.3 350.7C287.9 349.7 289.3 347.7 290.7 346.9C292.1 346.1 307.7 337.7 315 334.1C322.3 330.5 326 326.2 324.5 321.3C323.1 316.6 314.7 317.5 310.9 316.6C307.2 315.7 309.1 311.3 309.1 311.3C309.1 311.3 316.4 302.1 327.3 283.3C338.2 264.5 329 260.6 329 260.6" fill="#EBEBEB"/>
<path d="M319.1 276.9C319.1 276.9 319 277 318.9 277.3C318.7 277.6 318.5 278 318.2 278.5C317.6 279.5 316.8 281 315.7 283C313.5 286.9 310.3 292.5 306.2 299.3C298.2 313.1 286.9 332 274.4 352.9C261.9 373.8 250.6 392.7 242.5 406.4C238.5 413.3 235.2 418.8 232.9 422.7C231.8 424.6 230.9 426.1 230.3 427.1C230 427.6 229.8 428 229.6 428.2C229.4 428.5 229.4 428.6 229.4 428.6C229.4 428.6 229.5 428.5 229.6 428.2C229.8 427.9 230 427.5 230.2 427C230.8 426 231.6 424.5 232.7 422.5C234.9 418.6 238.1 413 242.2 406.2C250.2 392.4 261.5 373.5 274 352.6C286.5 331.7 297.8 312.8 305.9 299.1C309.9 292.2 313.2 286.7 315.5 282.8C316.6 280.9 317.5 279.4 318.1 278.4C318.4 277.9 318.6 277.5 318.8 277.3C319 277 319.1 276.9 319.1 276.9Z" fill="#E0E0E0"/>
<path d="M282.5 304.9C282.5 304.9 282.6 305.3 282.8 305.9C283 306.6 283.2 307.5 283.4 308.7C283.9 311 284.5 314.3 285.1 317.9C285.7 321.5 286.2 324.7 286.6 327.1C286.8 328.2 286.9 329.1 287.1 329.9C287.2 330.6 287.3 330.9 287.2 330.9C287.2 330.9 287.1 330.6 286.9 329.9C286.7 329.2 286.5 328.3 286.3 327.1C285.8 324.7 285.3 321.5 284.7 317.9C284.1 314.3 283.6 311.1 283.2 308.7C283 307.6 282.9 306.7 282.7 305.9C282.5 305.3 282.5 304.9 282.5 304.9Z" fill="#E0E0E0"/>
<path d="M288.5 331.3C288.5 331.2 295.1 329.7 303.4 327.9C311.7 326.2 318.4 324.8 318.4 325C318.4 325.1 311.8 326.6 303.5 328.4C295.2 330.1 288.5 331.4 288.5 331.3Z" fill="#E0E0E0"/>
<path d="M267.8 362.5C267.8 362.5 268.2 362.5 268.9 362.5C269.7 362.6 270.6 362.6 271.8 362.7C274.2 362.9 277.6 363.1 281.3 363.2C285 363.3 288.4 363.3 290.8 363.3C292 363.3 292.9 363.3 293.7 363.3C294.4 363.3 294.8 363.3 294.8 363.3C294.8 363.3 294.4 363.4 293.7 363.4C293 363.5 292 363.5 290.8 363.6C288.4 363.7 285 363.8 281.2 363.6C277.5 363.5 274.1 363.2 271.7 362.9C270.5 362.8 269.5 362.6 268.8 362.5C268.2 362.6 267.8 362.5 267.8 362.5Z" fill="#E0E0E0"/>
<path d="M257.2 339.8C257.2 339.8 257.4 340.1 257.7 340.6C258 341.2 258.4 342 258.9 343C259.9 345 261.3 347.8 262.8 350.9C264.3 354 265.6 356.8 266.6 358.9C267 359.9 267.4 360.7 267.7 361.3C268 361.9 268.1 362.2 268 362.2C268 362.2 267.8 361.9 267.5 361.4C267.2 360.8 266.8 360 266.3 359C265.3 357 263.9 354.2 262.4 351.1C260.9 348 259.6 345.2 258.6 343.1C258.2 342.1 257.8 341.3 257.5 340.7C257.3 340.1 257.1 339.8 257.2 339.8Z" fill="#E0E0E0"/>
<path d="M235.4 365C235.4 365 235.7 365.4 236 366.1C236.4 366.9 236.9 367.9 237.6 369.1C238.9 371.7 240.7 375.3 242.7 379.2C244.7 383.2 246.4 386.8 247.7 389.4C248.3 390.7 248.8 391.7 249.2 392.5C249.5 393.2 249.7 393.7 249.7 393.7C249.7 393.7 249.4 393.3 249.1 392.6C248.7 391.8 248.2 390.8 247.5 389.6C246.2 387 244.4 383.4 242.4 379.5C240.4 375.5 238.7 371.9 237.4 369.3C236.8 368 236.3 367 235.9 366.2C235.6 365.4 235.4 365 235.4 365Z" fill="#E0E0E0"/>
<path d="M249.5 392.9C249.5 392.9 250 392.9 250.9 392.9C251.8 392.9 253.1 393 254.6 393C257.7 393.1 262 393.3 266.7 393.3C271.4 393.3 275.7 393.3 278.8 393.2C280.3 393.2 281.5 393.1 282.5 393.1C283.4 393.1 283.8 393.1 283.9 393.1C283.9 393.1 283.4 393.2 282.6 393.3C281.7 393.4 280.5 393.5 278.9 393.5C275.8 393.7 271.5 393.8 266.8 393.8C262.1 393.8 257.8 393.6 254.7 393.4C253.2 393.3 251.9 393.2 251 393.1C250 393 249.5 392.9 249.5 392.9Z" fill="#E0E0E0"/>
<path d="M376.4 425.3C376.4 425.4 295.3 425.6 195.3 425.6C95.3 425.6 14.2 425.5 14.2 425.3C14.2 425.2 95.3 425 195.3 425C295.3 425.1 376.4 425.2 376.4 425.3Z" fill="#263238"/>
<path d="M288.6 363.5L273.4 290.9C273.4 290.9 264.5 255.9 233.7 243.8L231.6 243.1C231.6 243.1 228.7 242.2 228.6 242.2C227.4 241.7 222.3 240.1 221 239.7C179.6 225.3 168.6 229.1 125.4 243.8C125.4 243.8 106.2 249 96.8999 274C87.5999 299 69.7999 338.2 69.7999 338.2L112.9 353.4L121.2 341.1V386.4V425H172.3H239.7L236.4 386.4L235.8 338.8" fill="#C63882"/>
<path d="M168 248.3C168 248.3 167.7 248.7 167 249.2C166.7 249.5 166.3 249.8 165.8 250.2C165.3 250.6 164.7 251 164.1 251.4C162.8 252.2 161.1 253.1 159.2 253.9C157.3 254.7 155.1 255.4 152.8 255.8C150.5 256.2 148.2 256.4 146.1 256.4C144 256.4 142.2 256.2 140.7 255.9C139.9 255.8 139.3 255.6 138.6 255.5C138 255.4 137.5 255.2 137.1 255.1C136.3 254.8 135.8 254.7 135.8 254.6C135.8 254.5 137.6 255.1 140.7 255.6C142.2 255.8 144.1 256 146.1 256C148.1 256 150.4 255.8 152.7 255.3C155 254.8 157.1 254.2 159 253.4C160.9 252.6 162.5 251.8 163.8 251C166.5 249.5 168 248.2 168 248.3Z" fill="#FAFAFA"/>
<g opacity="0.3">
<path opacity="0.3" d="M121.2 373.1L130.9 384.3H140.5V396.5L239.2 419.4L238.4 409.8L145.5 377.9H129.9L122.4 371.9L121.2 373.1Z" fill="black"/>
</g>
<path d="M150.3 363.1L142.1 361.6C142.1 361.6 122.6 340.2 118.9 339.9C115.9 339.6 99.2999 339.8 93.4999 339.9C92.3999 339.9 91.4999 340.8 91.4999 341.9C91.4999 343 92.3999 343.9 93.3999 343.9L113 344.7L113.1 346.3L93.3999 346.6C91.3999 346.8 90.0999 349.9 96.4999 350.5L113 351V352L96.2999 354.3C95.4999 354.4 93.1999 354.8 93.1999 355.7C93.1999 355.7 92.1999 357.8 96.8999 358.4C98.4999 358.6 113 358.1 113 358.1L112.4 359.4L97.3999 362.6C96.2999 362.8 95.5999 363.9 95.6999 365C95.8999 366.1 96.8999 366.9 97.9999 366.8L114 365.3L129.7 377.8H150.7L150.3 363.1Z" fill="#FFBE9D"/>
<path d="M288.6 363.5L240.7 372.9L235.9 338.8" fill="#C63882"/>
<path d="M234.3 364.8L145.5 361.9V392.6L204.4 404.3L245.8 410.9C271.5 410.9 292.1 387.3 288.1 361.9H288L234.3 364.8Z" fill="#C63882"/>
<path d="M258.8 364.2C258.8 364.2 258.4 364.3 257.6 364.3C256.8 364.3 255.7 364.4 254.3 364.4C251.4 364.5 247.2 364.5 242.2 364.6C231.9 364.7 217.8 364.9 202.1 364.8C186.4 364.6 172.3 364.1 162 363.4C156.9 363.1 152.7 362.7 149.9 362.4C148.5 362.3 147.4 362.1 146.6 362.1C145.8 362 145.5 362 145.5 361.9C145.5 361.9 145.9 361.9 146.7 361.9C147.5 362 148.6 362 150 362.1C152.9 362.3 157 362.6 162.1 362.8C172.3 363.4 186.5 363.9 202.1 364C217.7 364.1 231.9 364.1 242.2 364C247.3 364 251.4 364 254.3 364C255.7 364 256.8 364 257.6 364C258.4 364.2 258.8 364.2 258.8 364.2Z" fill="#263238"/>
<path d="M145.5 362.2C145.5 362.2 145.5 362.4 145.5 362.7C145.5 363.1 145.5 363.6 145.5 364.3C145.5 365.7 145.5 367.8 145.6 370.4C145.6 375.7 145.7 383.1 145.7 392.1L145.5 391.9C155.5 394.1 167.6 396.7 180.5 399.4C198.2 403.2 214.4 406.1 226.1 407.9C232 408.8 236.7 409.5 240 409.9C241.6 410.1 242.9 410.3 243.8 410.4C244.2 410.5 244.5 410.5 244.8 410.5C245 410.5 245.1 410.6 245.1 410.6C245.1 410.6 245 410.6 244.8 410.6C244.5 410.6 244.2 410.5 243.8 410.5C242.9 410.4 241.6 410.3 240 410.1C236.7 409.7 231.9 409.1 226 408.3C214.2 406.6 198.1 403.7 180.3 399.9C167.4 397.2 155.3 394.5 145.3 392.3H145.1V392.1C145.1 383.1 145.2 375.7 145.2 370.4C145.2 367.8 145.2 365.8 145.3 364.3C145.3 363.6 145.3 363.1 145.3 362.7C145.5 362.4 145.5 362.2 145.5 362.2Z" fill="#263238"/>
<path d="M137.9 278.2C137.9 278.2 137.9 277.7 138 276.7C138.1 275.7 138.2 274.3 138.2 272.6C138.3 269.2 138.1 264.4 137.3 259.2C136.4 254.1 135.2 249.4 133.5 246.4C132.6 244.9 131.6 244 130.8 243.4C130 242.8 129.5 242.6 129.5 242.6C129.5 242.6 129.6 242.6 129.9 242.7C130.1 242.8 130.5 243 130.9 243.2C131.7 243.7 132.8 244.7 133.8 246.2C134.8 247.7 135.6 249.6 136.2 251.8C136.8 254 137.4 256.5 137.9 259.1C138.8 264.3 138.9 269.1 138.7 272.6C138.6 274.3 138.5 275.7 138.3 276.7C138 277.7 138 278.2 137.9 278.2Z" fill="#263238"/>
<path d="M235.6 251.2C235.7 251.2 235.9 271.6 235.9 296.8C235.9 322 235.8 342.4 235.6 342.4C235.4 342.4 235.3 322 235.3 296.8C235.3 271.7 235.5 251.2 235.6 251.2Z" fill="#263238"/>
<path d="M266.3 353.8C266.3 353.9 264.8 353.8 262.4 354.1C261.2 354.2 259.8 354.5 258.2 354.9C256.7 355.3 255 355.9 253.3 356.6C251.6 357.4 250.1 358.2 248.8 359.1C247.5 360 246.3 360.9 245.4 361.7C243.6 363.3 242.6 364.5 242.6 364.4C242.6 364.4 242.8 364.1 243.2 363.5C243.6 363 244.3 362.2 245.2 361.4C246.1 360.5 247.2 359.6 248.5 358.7C249.8 357.8 251.4 356.9 253.1 356.1C254.8 355.3 256.5 354.8 258.1 354.4C259.7 354 261.1 353.8 262.3 353.7C263.5 353.6 264.5 353.6 265.2 353.6C265.9 353.7 266.3 353.7 266.3 353.8Z" fill="#263238"/>
<g opacity="0.3">
<g opacity="0.3">
<path opacity="0.3" d="M138.7 358C153.7 349.1 163 334.3 172.1 319.4C181.2 304.5 189.7 289 202.4 277C208.2 271.5 215 266.9 217.2 259.1L194.4 277.2L131 350.1L138.7 358Z" fill="black"/>
</g>
</g>
<path d="M97.6 318.9C97.6 319.1 94 319 89.9 320.4C87.9 321.1 86.1 322 84.8 322.6C83.5 323.3 82.8 323.7 82.7 323.6C82.7 323.5 83.4 323 84.6 322.3C85.8 321.6 87.6 320.6 89.7 319.9C91.8 319.2 93.8 318.9 95.2 318.9C96.8 318.8 97.6 318.8 97.6 318.9Z" fill="#263238"/>
<path d="M97.6 318.9C97.6 319.1 94 319 89.9 320.4C87.9 321.1 86.1 322 84.8 322.6C83.5 323.3 82.8 323.7 82.7 323.6C82.7 323.5 83.4 323 84.6 322.3C85.8 321.6 87.6 320.6 89.7 319.9C91.8 319.2 93.8 318.9 95.2 318.9C96.8 318.8 97.6 318.8 97.6 318.9Z" fill="#263238"/>
<path d="M235.2 351.6C235.2 351.7 234.1 350.7 231.7 350C229.4 349.3 225.7 349.3 221.5 350.6C217.3 351.9 212.9 354.9 207.4 357.1C204.7 358.2 201.6 359 198.4 358.8C195.2 358.6 192 357.4 189 355.9C186 354.4 183.1 352.7 180.3 351.3C177.4 350 174.5 349.1 171.6 348.8C165.8 348.3 160.6 349.6 156.6 351.5C152.6 353.4 149.9 355.8 148.3 357.6C147.9 358.1 147.5 358.5 147.2 358.8C146.9 359.2 146.7 359.5 146.5 359.8C146.3 360 146.2 360.2 146 360.4C145.9 360.5 145.8 360.6 145.8 360.6C145.8 360.6 145.8 360.5 145.9 360.4C146 360.2 146.1 360 146.3 359.8C146.5 359.5 146.7 359.2 147 358.8C147.3 358.4 147.7 358 148.1 357.5C149.7 355.7 152.4 353.1 156.4 351.2C158.4 350.2 160.7 349.4 163.3 348.8C165.9 348.3 168.7 348 171.6 348.3C174.5 348.6 177.6 349.4 180.5 350.8C183.4 352.1 186.2 353.8 189.2 355.3C192.2 356.8 195.3 358 198.4 358.2C201.5 358.4 204.5 357.6 207.2 356.5C212.6 354.3 217 351.3 221.3 350.1C225.6 348.8 229.3 348.8 231.7 349.6C232.9 350 233.7 350.4 234.3 350.8C234.5 351 234.7 351.1 234.9 351.2C235.2 351.5 235.2 351.6 235.2 351.6Z" fill="#FAFAFA"/>
<path d="M278.7 314.6C278.7 314.7 278.1 314.3 276.9 314.3C275.7 314.2 274 314.6 272.2 315.7C270.4 316.7 268.6 318.6 266.1 320C264.8 320.7 263.3 321.2 261.7 321.1C260.1 321 258.6 320.4 257.1 319.6C255.6 318.9 254.3 318 252.9 317.5C251.5 316.9 250.1 316.5 248.7 316.3C247.3 316.1 246 316 244.7 316.1C243.5 316.1 242.3 316.3 241.3 316.6C239.2 317.1 237.6 317.7 236.6 318.3C235.5 318.8 235 319.2 235 319.2C235 319.2 235.1 319.1 235.4 318.9C235.7 318.7 236 318.4 236.6 318.2C237.6 317.6 239.2 316.8 241.3 316.3C242.3 316 243.5 315.8 244.8 315.8C246.1 315.7 247.4 315.8 248.9 316C250.3 316.2 251.8 316.6 253.2 317.2C254.7 317.8 256 318.6 257.5 319.3C258.9 320 260.4 320.6 261.9 320.7C263.4 320.8 264.8 320.3 266 319.7C268.4 318.4 270.3 316.5 272.2 315.5C274.1 314.4 275.9 314 277.1 314.2C277.7 314.3 278.2 314.4 278.5 314.5L278.7 314.6Z" fill="#FAFAFA"/>
<path d="M234.7 300.9C234.7 300.9 234.5 300.9 234 300.8C233.8 300.8 233.5 300.7 233.2 300.6C232.9 300.6 232.5 300.5 232.1 300.5C230.4 300.3 227.9 300.4 225 301.2C222.1 302 218.7 303.6 215.3 305.6C211.8 307.6 208.1 310.1 203.7 311.9C201.5 312.8 199.3 313.5 197.1 313.7C194.9 314 192.7 313.8 190.7 313.3C188.7 312.8 186.9 311.9 185.3 311.2C183.7 310.4 182.2 309.6 180.8 309C178.1 307.7 175.6 307 173.9 306.9C173.1 306.9 172.4 306.9 171.9 307C171.5 307 171.2 307.1 171.2 307C171.2 307 171.4 306.9 171.9 306.9C172.3 306.8 173 306.8 173.9 306.7C175.6 306.7 178.1 307.3 180.9 308.6C182.3 309.2 183.8 310 185.4 310.8C187 311.6 188.8 312.4 190.7 312.9C192.6 313.4 194.8 313.6 196.9 313.3C199.1 313.1 201.2 312.4 203.4 311.5C207.7 309.7 211.4 307.3 215 305.3C218.5 303.3 221.9 301.8 224.9 301C227.9 300.2 230.4 300.2 232.1 300.4C232.5 300.5 232.9 300.5 233.2 300.6C233.5 300.7 233.8 300.8 234 300.8C234.5 300.8 234.7 300.9 234.7 300.9Z" fill="#FAFAFA"/>
<path d="M265.7 270.2C265.7 270.2 265.3 270.5 264.6 270.8C263.9 271.2 262.9 271.7 261.6 272.3C260.3 272.9 258.7 273.5 256.9 273.9C255.1 274.4 252.9 274.6 250.8 274.3C248.6 274.1 246.6 273.6 244.8 273.4C243 273.1 241.3 273.1 239.9 273.3C237.1 273.7 235.7 275 235.7 274.9C235.7 274.9 235.8 274.8 235.9 274.7C236.1 274.6 236.3 274.4 236.6 274.2C237.3 273.8 238.4 273.3 239.8 273.1C241.2 272.8 243 272.8 244.8 273.1C246.7 273.3 248.7 273.8 250.8 274C255.1 274.5 258.9 273.1 261.5 272.1C262.8 271.6 263.9 271.1 264.6 270.8C265.2 270.3 265.6 270.1 265.7 270.2Z" fill="#FAFAFA"/>
<path d="M136.4 286.8C136.4 286.9 135.8 286.4 134.6 286.4C133.4 286.3 131.7 286.8 130 288.1C129.1 288.7 128.2 289.5 127.2 290.2C126.1 290.9 124.8 291.4 123.4 291.7C120.5 292.2 117.3 291.7 114.2 290.6C111.1 289.5 108.3 288.1 105.7 287.1C104.4 286.6 103.1 286.3 101.9 286.1C100.7 285.9 99.5 285.8 98.5 285.9C96.4 286 94.7 286.6 93.7 287.2C92.7 287.8 92.2 288.3 92.2 288.2C92.2 288.2 92.3 288.1 92.5 287.8C92.7 287.6 93.1 287.3 93.6 287C94.6 286.3 96.3 285.7 98.5 285.5C99.6 285.4 100.8 285.5 102 285.6C103.3 285.8 104.6 286.2 105.9 286.6C108.6 287.5 111.4 288.9 114.4 290C117.4 291.1 120.6 291.6 123.3 291.1C124.7 290.8 125.9 290.4 126.9 289.7C127.9 289 128.9 288.3 129.8 287.7C131.6 286.4 133.4 286 134.6 286.1C135.2 286.1 135.7 286.3 136 286.5C136.2 286.7 136.4 286.8 136.4 286.8Z" fill="#FAFAFA"/>
<path d="M192.7 363.4C192.7 363.4 192.8 363.5 193 363.7C193.2 363.9 193.5 364.2 193.8 364.6C194.4 365.5 195.2 366.9 195.4 368.7C195.7 370.6 195.5 373 194.1 375.1C192.8 377.3 190.5 379 189.2 381.4C188.6 382.6 188.4 384 188.7 385.3C188.9 386.6 189.5 387.8 190 388.9C191.1 391.1 192.1 393.2 192.1 395.2C192.1 397.2 191.1 398.6 190.2 399.2C189.8 399.5 189.4 399.7 189.1 399.7C188.8 399.8 188.7 399.8 188.7 399.7C188.7 399.6 189.3 399.6 190.1 399C190.9 398.4 191.7 397 191.7 395.2C191.7 393.4 190.7 391.3 189.6 389.1C189.1 388 188.5 386.8 188.2 385.4C187.9 384 188.1 382.5 188.7 381.2C189.4 379.9 190.3 378.8 191.2 377.8C192.1 376.8 193 375.9 193.6 374.8C194.9 372.8 195.2 370.5 195 368.7C194.8 366.9 194.1 365.5 193.6 364.6C193.1 363.8 192.6 363.4 192.7 363.4Z" fill="#FAFAFA"/>
<path d="M234.6 407.3C234.6 407.3 234.5 407.2 234.2 407C234 406.8 233.7 406.4 233.4 405.8C232.9 404.7 232.8 402.7 233.7 400.6C234.1 399.6 234.8 398.5 235.6 397.5C236.5 396.5 237.5 395.6 238.5 394.5C239.5 393.5 240.5 392.4 241.3 391C242 389.7 242.5 388.1 242.6 386.4C242.9 383.1 242.3 379.9 242.2 377C242 374.1 242.2 371.4 243.2 369.3C244.1 367.2 245.4 365.9 246.5 365.3C247 365 247.5 364.8 247.8 364.7C248.1 364.6 248.3 364.6 248.3 364.6C248.3 364.7 247.6 364.8 246.6 365.5C245.6 366.2 244.4 367.5 243.5 369.5C242.6 371.5 242.4 374.1 242.7 377C242.9 379.9 243.5 383 243.2 386.4C243 388.1 242.6 389.7 241.8 391.1C241 392.5 239.9 393.7 238.9 394.7C236.8 396.7 234.9 398.5 234.1 400.5C233.2 402.5 233.2 404.3 233.7 405.4C234.1 406.8 234.7 407.3 234.6 407.3Z" fill="#FAFAFA"/>
<path d="M239.7 420.6C239.7 420.6 239.4 420.9 238.6 421.3C237.8 421.7 236.6 422.2 235 422.3C233.4 422.5 231.3 422.3 229.1 421.6C226.8 421 224.4 419.8 221.9 418.3C219.4 416.9 216.6 415.1 213.4 414C210.2 412.9 206.4 412.8 202.7 413.6C198.9 414.4 195.2 415.9 191.3 417.5C187.4 419.1 183.4 420.9 178.9 421.8C176.7 422.3 174.4 422.4 172.2 422.2C170 422 167.9 421.3 166 420.4C162.2 418.5 159.1 415.7 156 413.5C154.4 412.4 152.9 411.3 151.2 410.5C150.8 410.3 150.4 410.1 150 409.9C149.6 409.7 149.2 409.6 148.8 409.4C148 409.1 147.1 408.9 146.3 408.7C143 407.9 139.7 407.9 136.9 408.3C134 408.7 131.5 409.5 129.4 410.5C128.9 410.7 128.4 411 127.9 411.3C127.4 411.5 127 411.8 126.6 412.1C126.2 412.4 125.8 412.6 125.4 412.9C125 413.2 124.7 413.4 124.4 413.7C123.7 414.2 123.2 414.7 122.8 415.1C122.3 415.5 122 415.9 121.7 416.2C121.4 416.5 121.2 416.7 121 416.9C120.8 417.1 120.8 417.1 120.8 417.1C120.8 417.1 120.9 417 121 416.8C121.2 416.6 121.4 416.4 121.6 416C121.9 415.7 122.2 415.2 122.7 414.8C123.2 414.4 123.6 413.8 124.3 413.3C124.6 413 125 412.8 125.3 412.5C125.7 412.2 126.1 412 126.5 411.7C126.9 411.4 127.3 411.1 127.8 410.9C128.3 410.6 128.8 410.3 129.3 410.1C131.4 409.1 134 408.2 136.9 407.8C139.8 407.4 143.1 407.3 146.5 408.1C147.3 408.3 148.2 408.5 149 408.8C149.4 409 149.9 409.1 150.3 409.3C150.7 409.5 151.1 409.7 151.5 409.9C153.2 410.7 154.8 411.8 156.3 412.9C159.4 415.2 162.5 417.9 166.2 419.8C168.1 420.7 170.1 421.4 172.2 421.6C174.3 421.8 176.5 421.7 178.7 421.2C183.1 420.3 187.1 418.6 191 417C194.9 415.4 198.7 413.8 202.5 413.1C206.3 412.3 210.2 412.4 213.5 413.5C216.8 414.6 219.5 416.4 222.1 417.8C224.6 419.3 227 420.5 229.2 421.2C231.4 421.9 233.4 422.1 235 421.9C236.6 421.8 237.8 421.3 238.6 421C239.4 420.8 239.7 420.5 239.7 420.6Z" fill="#FAFAFA"/>
<path d="M184.1 253.8C195.3 254.4 204.9 246 205.8 234.9C206.4 228.3 206.8 222.7 206.8 222.7C206.8 222.7 223.8 222.3 226.2 205.6C228.6 188.9 230.7 150.2 230.7 150.2C212.4 139.4 189.8 139.3 171.4 150L168.7 151.6L164.3 232C163.7 243.4 172.6 253.2 184.1 253.8Z" fill="#FFBE9D"/>
<path d="M209.2 193.9C209.2 193.7 210.7 193.6 213 193.6C213.6 193.6 214.1 193.5 214.2 193.2C214.4 192.9 214.2 192.2 214 191.4C213.6 189.8 213.2 188.2 212.8 186.5C211.2 179.5 210.1 173.8 210.5 173.7C210.9 173.6 212.5 179.2 214.1 186.2C214.5 187.9 214.8 189.5 215.2 191.1C215.3 191.8 215.6 192.7 215.2 193.6C215 194.1 214.4 194.4 214 194.4C213.6 194.5 213.2 194.4 213 194.4C210.7 194.4 209.2 194.1 209.2 193.9Z" fill="#263238"/>
<path d="M206.9 222.3C206.9 222.3 196.2 221.8 185.9 213.3C185.9 213.3 189.5 226 206.3 226.6L206.9 222.3Z" fill="#EB996E"/>
<path d="M230.5 154.3C230.5 154.3 220 158.7 207 151.3C198.5 146.5 188.4 143.8 186.1 145.4C183.8 147 182.8 156 174 158.2C174 158.2 173.6 175.4 166.8 174.4C160 173.4 165.7 147 165.7 147L182.9 139.7L201.4 137.3L218.5 140.7L231.6 145.1L230.5 154.3Z" fill="#263238"/>
<path d="M168.6 169C168.3 168.8 157.6 164.1 156.5 175.6C155.4 187.1 167.1 185.8 167.2 185.5C167.2 185.1 168.6 169 168.6 169Z" fill="#FFBE9D"/>
<path d="M164 180.8C164 180.8 163.8 180.9 163.4 181C163.1 181.1 162.5 181.2 161.9 180.9C160.7 180.3 159.9 178.3 160 176.2C160.1 175.2 160.4 174.2 160.8 173.4C161.2 172.6 161.8 172.1 162.5 172C163.1 171.9 163.5 172.3 163.6 172.7C163.7 173 163.6 173.3 163.7 173.3C163.7 173.3 164 173.1 163.9 172.6C163.9 172.4 163.8 172.1 163.5 171.8C163.2 171.5 162.9 171.4 162.4 171.4C161.5 171.4 160.6 172.1 160.1 173C159.6 173.9 159.2 175 159.1 176.1C158.9 178.4 159.9 180.7 161.5 181.3C162.3 181.6 163 181.4 163.4 181.2C164 181.1 164.1 180.8 164 180.8Z" fill="#EB996E"/>
<path d="M181.7 147.3C179.4 149.8 177 152.3 174.1 154.1C171.2 155.9 167.6 156.9 164.3 156.2C161 155.4 158 152.5 157.9 149.1C157.8 145.7 161.1 142.3 164.5 143.1C162.2 143.1 160.3 140.6 161 138.4C161.7 136.2 164.8 135.3 166.6 136.7C163.7 136.2 163.4 131.5 165.7 129.7C168 127.9 171.4 128.3 174.1 129.4C176.8 130.5 179.4 132.2 182.2 132.9C186.7 133.9 191.4 132 195.4 129.7C199.4 127.4 203.2 124.5 207.7 123.3C213.2 121.8 219.1 122.9 224.4 125.1C228.8 126.9 232.9 129.6 235.7 133.4C238.5 137.2 239.9 142.2 238.7 146.8C237.4 151.4 233.2 155.1 228.5 155.1C228.5 155.1 217.9 156.2 209.2 149.8C200.6 143.4 182.4 144.2 182.4 144.2L181.7 147.3Z" fill="#263238"/>
<path d="M165.7 133.9C165.7 133.9 165.9 134.1 166.4 134.4C166.8 134.7 167.5 135.1 168.5 135.7C170.3 136.7 173.1 138 176.8 139C180.4 140 185 140.6 190 140.3C195 140 200.3 138.4 205.8 137C211.3 135.7 216.7 135 221.4 136.1C226.1 137.2 229.8 140 231.4 143.2C233 146.4 232.9 149.6 232.3 151.5C231.7 153.5 230.9 154.3 231 154.4C231 154.4 231.2 154.2 231.6 153.8C231.9 153.3 232.4 152.7 232.8 151.7C233.6 149.7 233.9 146.4 232.3 142.8C230.6 139.3 226.7 136.2 221.8 135C216.8 133.7 211.2 134.4 205.6 135.8C200 137.2 194.9 138.8 190 139.2C185.1 139.6 180.7 139.1 177.1 138.2C169.7 136.4 165.8 133.7 165.7 133.9Z" fill="#455A64"/>
<path d="M160.6 151.6C160.5 151.7 160.8 152.8 162.1 154.2C163.3 155.6 165.5 157.2 168.4 157.9C171.3 158.5 173.9 157.9 175.6 157.2C177.3 156.4 178.1 155.5 178 155.4C177.9 155.2 176.9 155.8 175.3 156.4C173.6 156.9 171.2 157.3 168.6 156.8C166 156.2 164 154.9 162.7 153.7C161.4 152.5 160.7 151.5 160.6 151.6Z" fill="#455A64"/>
<path d="M164.1 146C163.8 146.1 164.7 148.2 166.9 149.7C169.1 151.2 171.4 151.3 171.4 151C171.5 150.7 169.6 150.1 167.6 148.7C165.7 147.4 164.4 145.8 164.1 146Z" fill="#455A64"/>
<path d="M236.2 162C236.4 162 236.7 161.5 236.8 160.4C236.9 159.4 236.7 157.9 235.8 156.5C234.9 155.1 233.7 154.3 232.7 154C231.7 153.7 231.1 153.7 231.1 153.9C231 154.2 233.4 154.9 234.8 157.2C236.2 159.5 235.8 161.9 236.2 162Z" fill="#263238"/>
<path d="M242.1 145.5C241.8 145.4 240.5 148.4 237.5 150.9C234.5 153.5 231.3 154.2 231.4 154.6C231.4 154.9 235 154.7 238.3 151.9C241.6 149.1 242.4 145.6 242.1 145.5Z" fill="#455A64"/>
<path d="M224.7 175.5C224.6 176.9 223.3 177.9 221.9 177.8C220.5 177.7 219.4 176.5 219.6 175.1C219.7 173.7 221 172.7 222.4 172.8C223.8 172.9 224.9 174.1 224.7 175.5Z" fill="#263238"/>
<path d="M226.8 175.3C226.4 175.6 224.7 173.9 221.9 173.6C219.2 173.2 216.9 174.4 216.7 174C216.6 173.8 217 173.3 217.9 172.7C218.8 172.2 220.4 171.7 222.1 172C223.8 172.2 225.2 173.1 225.9 173.8C226.7 174.5 226.9 175.1 226.8 175.3Z" fill="#263238"/>
<path d="M199.7 172C199.6 173.4 198.3 174.4 196.9 174.3C195.5 174.2 194.4 173 194.6 171.6C194.7 170.2 196 169.2 197.4 169.3C198.8 169.5 199.8 170.6 199.7 172Z" fill="#263238"/>
<path d="M201.5 171.9C201.1 172.2 199.4 170.5 196.6 170.2C193.9 169.8 191.6 171 191.4 170.6C191.3 170.4 191.7 169.9 192.6 169.3C193.5 168.8 195.1 168.3 196.8 168.6C198.5 168.8 199.9 169.7 200.6 170.4C201.4 171.2 201.7 171.8 201.5 171.9Z" fill="#263238"/>
<path d="M200.4 164.4C199.9 164.9 197.8 163.4 195 163.1C192.2 162.8 189.9 163.8 189.5 163.2C189.3 162.9 189.7 162.2 190.7 161.5C191.7 160.8 193.4 160.3 195.3 160.5C197.2 160.7 198.8 161.6 199.6 162.5C200.5 163.4 200.7 164.1 200.4 164.4Z" fill="#263238"/>
<path d="M226.6 168.9C226.7 169.2 226.2 169.8 225.2 170.2C224.2 170.6 222.7 170.9 221 170.6C219.4 170.3 218 169.6 217.2 168.9C216.4 168.2 216.1 167.5 216.3 167.2C216.8 166.6 218.8 167.6 221.4 168C224.1 168.5 226.3 168.2 226.6 168.9Z" fill="#263238"/>
<path d="M207.1 198.5C207.4 198.5 207.6 199 207.6 199.7C207.6 200.3 207.3 200.8 207 200.8C206.7 200.8 206.5 200.3 206.5 199.6C206.6 199 206.8 198.5 207.1 198.5Z" fill="#263238"/>
<path d="M166.5 189.8C166.5 189.8 166.5 190.1 166.3 190.5C166.1 190.9 165.6 191.4 164.8 191.8C164.1 192.2 163 192.4 161.9 192C160.8 191.6 159.8 190.7 159.4 189.4C159 188.1 159.2 186.8 159.8 185.8C160.3 184.8 161.2 184.2 162 183.8C162.8 183.5 163.5 183.4 163.9 183.4C164.4 183.4 164.6 183.5 164.6 183.5C164.6 183.6 163.6 183.4 162.1 184.1C161.4 184.4 160.7 185 160.2 186C159.7 186.9 159.5 188.1 159.9 189.2C160.3 190.3 161.2 191.1 162.1 191.5C163 191.9 164 191.8 164.7 191.4C166.1 190.8 166.5 189.8 166.5 189.8Z" fill="#455A64"/>
<path d="M177.6 258.3C177.6 258.3 183.2 250.4 186.7 246C190.9 240.6 193.5 236 193.5 233.5C193.5 231 193.5 220.2 193.5 220.2C193.5 220.2 198.8 218.9 199.5 225C200.3 231 199.5 232.5 199.5 232.5C199.5 232.5 221.7 217.5 223.2 218.6C225.8 220.5 220.8 224.5 220.8 224.5L207.3 236.7L215 234.3C216.9 233.7 218.9 234.7 219.5 236.6C220 238.1 219.5 239.8 218.1 240.7L213.5 244.7L215.8 243.8C217.5 243.1 219.4 243.8 220.3 245.5C221 246.8 220.7 248.4 219.7 249.5L215.5 253.9L217.4 252.9C218.7 252.2 220.2 252.7 220.9 254C221.4 255.1 221.1 256.4 220.2 257.1L195.3 276.8L177.6 258.3Z" fill="#FFBE9D"/>
<path d="M195.5 276.6C195.5 276.6 195.4 276.5 195.2 276.3C195 276.1 194.7 275.8 194.3 275.4C193.5 274.6 192.3 273.4 190.8 271.8C187.7 268.7 183.2 264.1 177.6 258.4L177.5 258.3L177.6 258.2C179.2 255.9 181 253.4 182.9 250.8C183.9 249.5 184.9 248.2 185.9 246.8C187 245.4 188 244.1 189.1 242.6C190.1 241.1 191.1 239.6 192 237.9C192.8 236.2 193.6 234.4 193.4 232.5C193.4 228.6 193.4 224.5 193.4 220.2V220H193.6C194.9 219.7 196.4 219.9 197.6 220.7C198.2 221.1 198.7 221.6 199.1 222.2C199.4 222.8 199.7 223.5 199.8 224.2C200.1 225.6 200.2 226.9 200.3 228.4C200.3 229.1 200.3 229.8 200.3 230.5C200.3 231.2 200.2 231.9 200 232.7L199.6 232.4C203 230.1 206.6 227.8 210.3 225.5C212.1 224.3 214 223.2 215.9 222.1C217.8 221 219.7 219.8 221.8 218.9C222.1 218.8 222.4 218.7 222.7 218.6C222.9 218.6 223 218.5 223.2 218.5C223.3 218.5 223.4 218.5 223.5 218.5C223.7 218.6 223.7 218.6 223.8 218.7C224.3 219.1 224.6 219.8 224.6 220.5C224.4 221.8 223.6 222.7 222.8 223.6C222 224.5 221.1 225.2 220.2 226C219.4 226.8 218.5 227.5 217.7 228.3C214.3 231.3 211 234.3 207.8 237.2L207.6 236.8C209.1 236.3 210.6 235.8 212.1 235.4C212.8 235.2 213.6 234.9 214.3 234.7C214.7 234.6 215 234.5 215.4 234.4C215.8 234.3 216.2 234.2 216.6 234.3C218.2 234.4 219.7 235.6 220.1 237.1C220.5 238.7 219.9 240.4 218.6 241.3C217 242.6 215.5 244 214 245.2L213.8 244.8C214.6 244.5 215.3 244.2 216 243.9C216.8 243.6 217.7 243.5 218.5 243.7C220.1 244.1 221.3 245.7 221.2 247.3C221.2 248.1 220.9 248.9 220.4 249.5C219.9 250.1 219.4 250.6 218.9 251.1C217.9 252.2 216.9 253.2 216 254.2L215.8 253.9C216.5 253.5 217.2 253.2 217.9 252.8C218.7 252.4 219.6 252.5 220.3 252.9C221 253.3 221.6 254 221.7 254.7C221.9 255.5 221.7 256.3 221.2 256.9C221 257.2 220.6 257.4 220.4 257.6C220.1 257.8 219.8 258 219.6 258.3C219.1 258.7 218.5 259.2 218 259.6C216.9 260.4 215.9 261.2 214.9 262C210.9 265.1 207.5 267.8 204.6 270C201.8 272.2 199.6 273.9 198.1 275.1C197.4 275.7 196.8 276.1 196.4 276.4C195.7 276.5 195.5 276.6 195.5 276.6C195.5 276.6 195.7 276.4 196.1 276.1C196.5 275.8 197.1 275.3 197.8 274.7C199.3 273.5 201.5 271.8 204.3 269.5C207.1 267.3 210.5 264.5 214.5 261.4C215.5 260.6 216.5 259.8 217.6 259C218.1 258.6 218.7 258.2 219.2 257.7C219.5 257.5 219.7 257.3 220 257C220.3 256.8 220.6 256.6 220.8 256.3C221.2 255.8 221.4 255.1 221.2 254.4C221.1 253.7 220.6 253.1 220 252.8C219.4 252.5 218.6 252.5 218 252.8C217.3 253.2 216.6 253.5 215.9 253.9L214.8 254.5L215.6 253.6C216.5 252.6 217.5 251.6 218.5 250.5C219 250 219.5 249.4 220 248.9C220.4 248.3 220.7 247.7 220.7 247C220.7 245.6 219.7 244.2 218.3 243.8C217.6 243.6 216.8 243.7 216.1 243.9C215.4 244.2 214.6 244.5 213.9 244.8L212.6 245.3L213.6 244.4C215.1 243.1 216.6 241.8 218.2 240.4C219.3 239.6 219.9 238.1 219.5 236.8C219.2 235.4 217.9 234.4 216.4 234.3C215.7 234.2 215 234.5 214.2 234.8C213.5 235 212.7 235.3 212 235.5C210.5 236 209 236.4 207.5 236.9L206.4 237.3L207.3 236.5C210.5 233.6 213.8 230.6 217.2 227.6C218 226.8 218.9 226.1 219.7 225.3C220.5 224.5 221.4 223.8 222.2 223C222.9 222.2 223.7 221.2 223.8 220.2C223.9 219.7 223.7 219.2 223.2 218.9C223.1 218.8 222.9 218.8 222.6 218.9C222.3 219 222.1 219.1 221.8 219.2C219.8 220.1 217.8 221.2 215.9 222.3C214 223.4 212.1 224.6 210.3 225.7C206.6 228 203.1 230.3 199.7 232.6L199.1 233L199.4 232.3C199.6 231.7 199.7 231 199.7 230.3C199.7 229.6 199.7 228.9 199.7 228.2C199.6 226.8 199.5 225.4 199.3 224.1C199.2 223.4 198.9 222.8 198.6 222.3C198.3 221.8 197.8 221.3 197.3 220.9C196.2 220.2 194.9 220.1 193.7 220.3L193.9 220.1C193.9 224.3 193.9 228.4 193.9 232.4C193.9 232.9 193.9 233.4 193.9 233.9C193.8 234.4 193.7 234.9 193.6 235.4C193.3 236.3 192.9 237.2 192.5 238.1C191.6 239.8 190.6 241.4 189.6 242.8C188.6 244.3 187.5 245.7 186.4 247C185.4 248.4 184.3 249.7 183.4 251C181.5 253.6 179.7 256.1 178.1 258.3V258.1C183.7 263.8 188.1 268.4 191.2 271.6C192.7 273.2 193.9 274.4 194.7 275.2C195.1 275.6 195.4 275.9 195.6 276.2C195.4 276.5 195.5 276.6 195.5 276.6Z" fill="#EB996E"/>
<path d="M195.5 276.6L127.4 366.6C117.1 380.3 98.4 385.2 82.9 377.8C71.6 372.4 63.2999 361 70.1999 337.6L135.5 292.9L175.2 254.6L195.5 276.6Z" fill="#C63882"/>
<path d="M82.8999 377.8C82.8999 377.8 83.1999 377.9 83.5999 378.2C84.0999 378.5 84.7999 378.8 85.6999 379.3C87.5999 380.1 90.5999 381.3 94.5999 381.7C96.5999 381.9 98.7999 381.9 101.3 381.6C102.5 381.5 103.8 381.2 105.1 380.9C105.7 380.8 106.4 380.5 107.1 380.4C107.8 380.2 108.4 380 109.1 379.7C111.8 378.7 114.6 377.4 117.3 375.7C120 374 122.7 371.8 125 369C129.7 363.5 134.5 357.2 139.7 350.5C144.9 343.8 150.4 336.6 156.1 329C167.6 313.8 180.2 297 193.3 279.3C194 278.4 194.7 277.4 195.4 276.5V276.8C188.4 269.3 181.6 261.9 175.1 254.8H175.4C161.5 266.3 148.7 277.2 137 287C125.4 296.8 114.9 305.3 106.1 312.3C97.2999 319.3 90.0999 324.7 85.0999 328.4C82.5999 330.2 80.6999 331.6 79.2999 332.6C78.5999 333.1 78.0999 333.4 77.7999 333.7C77.4999 333.9 77.2999 334 77.2999 334C77.2999 334 77.4999 333.9 77.7999 333.6C78.0999 333.3 78.5999 333 79.2999 332.5C80.5999 331.5 82.4999 330.1 84.9999 328.3C89.9999 324.6 97.0999 319.1 105.9 312.1C114.7 305.1 125.1 296.5 136.7 286.7C148.3 276.9 161.2 266 175.1 254.5L175.3 254.3L175.5 254.5C182.1 261.6 188.9 268.9 195.8 276.5L195.9 276.7L195.8 276.9C195.1 277.8 194.4 278.8 193.7 279.7C180.6 297.4 168 314.2 156.5 329.4C150.7 337 145.2 344.2 140 350.9C134.8 357.6 130 363.9 125.3 369.4C123 372.2 120.3 374.4 117.5 376.1C114.8 377.9 111.9 379.2 109.2 380.1C108.5 380.4 107.9 380.6 107.2 380.8C106.5 381 105.9 381.2 105.2 381.3C103.9 381.6 102.6 381.9 101.4 381.9C98.9999 382.2 96.6999 382.1 94.6999 382C90.6999 381.6 87.6999 380.3 85.7999 379.5C84.8999 379 84.1999 378.6 83.6999 378.3C83.0999 377.9 82.8999 377.8 82.8999 377.8Z" fill="#263238"/>
<path d="M134.5 354.4C134.5 354.5 133.7 353.8 132.1 353C130.5 352.3 127.9 351.7 124.8 352.1C123.2 352.3 121.5 352.6 119.7 353.2C117.9 353.7 116.1 354.5 114.1 355.3C112.1 356.1 110.1 356.9 107.8 357.5C105.6 358.1 103.2 358.4 100.7 358.2C98.2 357.9 95.9 357.2 93.8 356.3C91.7 355.4 89.7 354.4 87.8 353.5C84 351.7 80.3 350.6 77.2 350.8C74 350.9 71.6 352.2 70.3 353.3C68.9 354.4 68.5 355.4 68.5 355.3C68.5 355.3 68.6 355.1 68.8 354.7C69.1 354.3 69.5 353.7 70.1 353.1C71.4 351.9 73.8 350.6 77.1 350.4C80.4 350.2 84.1 351.3 88 353.1C89.9 354 91.9 355 94 355.8C96.1 356.7 98.4 357.4 100.7 357.7C103.1 357.9 105.4 357.6 107.6 357C109.8 356.4 111.9 355.6 113.8 354.9C115.8 354.1 117.6 353.4 119.4 352.9C121.2 352.4 122.9 352 124.5 351.9C127.7 351.6 130.3 352.2 131.9 353C133.9 353.6 134.5 354.4 134.5 354.4Z" fill="#FAFAFA"/>
<path d="M158.6 324.2C158.5 324.2 159 323.6 158.9 322.4C158.7 321.3 157.8 319.6 155.9 318.7C154.9 318.3 153.8 318 152.6 317.7C151.4 317.4 150 317.1 148.7 316.5C146.1 315.3 143.7 313.2 141.4 310.8C139.2 308.4 137.1 306 135 304.2C132.9 302.3 130.6 301.1 128.6 300.5C126.6 299.9 124.8 299.9 123.6 300.2C122.4 300.4 121.8 300.7 121.8 300.6C121.8 300.6 121.9 300.5 122.2 300.4C122.5 300.3 122.9 300.1 123.5 300C124.7 299.7 126.5 299.6 128.6 300.2C130.7 300.7 133.1 302 135.2 303.9C137.4 305.7 139.4 308.1 141.7 310.5C143.9 312.9 146.3 314.9 148.8 316.1C151.3 317.3 154 317.4 155.9 318.5C157.9 319.5 158.9 321.3 158.9 322.5C158.9 323.1 158.8 323.6 158.7 323.9C158.7 324.1 158.6 324.2 158.6 324.2Z" fill="#FAFAFA"/>
<path d="M350 87.3L347 87.5L341.1 97L341.5 102.9C341.5 102.9 336.9 103.5 336.9 95.7C336.9 87.9 336.5 89.9 336.5 89.9C336.5 89.9 326.7 90.5 325.9 89.7C325.3 89.1 324.4 79.4 323.9 74.2C323.7 71.6 325.1 69 327.6 68.2C327.9 68.1 328.3 68 328.6 68C331 67.8 343.6 69 343.6 69L348.7 68.7L350 87.3Z" fill="#455A64"/>
<path d="M358.6 88.3L355.4 68.1L350.3 68.4L351.7 88.4L358.6 88.3Z" fill="#455A64"/>
<path d="M280.2 105.5C280.2 105.5 280.4 105.5 280.6 105.6C280.7 105.6 280.9 105.7 281.1 105.8C281.3 105.9 281.5 106 281.7 106.1C282.6 106.6 283.9 107.8 284.7 109.6C285.1 110.5 285.3 111.6 285.2 112.8C285.1 114 284.7 115.2 283.9 116.3C283.1 117.4 282 118.3 280.6 118.8C279.3 119.4 277.7 119.5 276.2 119.1C274.7 118.7 273.4 117.8 272.5 116.6C271.6 115.5 271 114.1 270.9 112.8C270.7 111.5 271 110.2 271.5 109.1C272 108 272.8 107.2 273.5 106.6C275.1 105.4 276.7 105 277.8 105C278.1 105 278.3 105 278.5 105C278.7 105 278.9 105 279 105.1C279.3 105.2 279.4 105.2 279.4 105.2C279.4 105.3 278.8 105.1 277.7 105.2C276.6 105.3 275.1 105.7 273.6 106.9C272.9 107.5 272.2 108.3 271.7 109.3C271.2 110.3 271 111.5 271.2 112.7C271.5 115.1 273.4 117.7 276.1 118.5C278.9 119.2 281.8 117.8 283.3 115.9C284.1 114.9 284.5 113.8 284.6 112.7C284.7 111.6 284.5 110.6 284.1 109.7C283.4 107.9 282.2 106.8 281.4 106.2C280.8 105.7 280.2 105.5 280.2 105.5Z" fill="#263238"/>
<path d="M259.4 123.3C259.4 123.3 259.8 123.3 260.4 123.7C261 124 261.8 124.8 262.3 125.9C262.5 126.5 262.7 127.2 262.7 127.9C262.6 128.7 262.4 129.5 261.9 130.1C260.9 131.5 258.9 132.4 257 131.9C255 131.4 253.8 129.6 253.6 127.9C253.5 127.1 253.6 126.2 254 125.5C254.3 124.8 254.8 124.3 255.3 123.9C256.3 123.1 257.4 122.9 258.1 122.9C258.8 122.9 259.2 123.1 259.2 123.1C259.2 123.1 258.8 123.1 258.1 123.1C257.4 123.2 256.5 123.4 255.6 124.2C254.7 124.9 253.9 126.3 254.1 127.8C254.3 129.3 255.4 130.9 257.1 131.4C258.8 131.8 260.6 131 261.5 129.8C262.5 128.6 262.4 127 262 125.9C261.6 124.8 260.9 124.1 260.3 123.7C259.8 123.4 259.4 123.3 259.4 123.3Z" fill="#263238"/>
<path d="M289.7 74.9C289.7 74.9 289.7 74.6 289.8 74.1C289.9 73.5 290 72.7 290.2 71.7C290.3 71.2 290.4 70.6 290.5 69.9C290.6 69.2 290.9 68.5 291.1 67.8C291.3 67 291.5 66.2 291.8 65.3C291.9 64.9 292.1 64.4 292.3 64C292.5 63.5 292.7 63.1 292.8 62.6C294.2 58.7 296.6 54.2 300.1 49.5C303.7 44.8 308.6 40.1 315 36.4C315.8 35.9 316.6 35.5 317.4 35C318.2 34.6 319.1 34.2 320 33.8C320.9 33.4 321.8 32.9 322.7 32.6C323.6 32.3 324.6 32 325.5 31.6C326 31.4 326.5 31.3 326.9 31.1C327.4 31 327.9 30.9 328.4 30.7C329.4 30.5 330.4 30.2 331.4 30C332.4 29.8 333.5 29.7 334.5 29.5C335.6 29.4 336.6 29.1 337.7 29.2C339.9 29.2 342.1 29 344.3 29.2C345.4 29.3 346.6 29.3 347.7 29.5C348.8 29.7 350 29.9 351.1 30.1C351.7 30.2 352.3 30.3 352.8 30.4C353.4 30.6 353.9 30.7 354.5 30.9C355.6 31.2 356.8 31.5 357.9 31.9C360.1 32.8 362.4 33.5 364.6 34.8C365.1 35.1 365.7 35.4 366.2 35.6C366.5 35.7 366.8 35.9 367 36L367.8 36.5C368.8 37.2 369.9 37.8 371 38.5C372 39.2 373 40 374 40.8C374.5 41.2 375 41.6 375.5 42L376.9 43.3C378.8 45 380.5 47 382.2 49C383 50.1 383.7 51.1 384.5 52.2L385.1 53L385.6 53.9L386.6 55.6L387.6 57.3L388.4 59.1L389.2 60.9L389.6 61.8C389.7 62.1 389.8 62.4 389.9 62.8C390.3 64.1 390.8 65.4 391.2 66.7C391.5 68 391.8 69.4 392.1 70.7C393.2 76.1 393.4 81.7 392.8 87.4C392 93 390.5 98.4 388.1 103.4C387.5 104.6 386.8 105.8 386.2 107.1C385.5 108.3 384.7 109.4 384 110.5L383.4 111.4L382.8 112.2L381.5 113.8L380.2 115.4L378.8 116.8L377.4 118.2L376.7 118.9L375.9 119.5C374.9 120.4 373.9 121.2 372.9 122.1C370.8 123.6 368.7 125.2 366.4 126.4L364.7 127.4C364.1 127.7 363.5 127.9 363 128.2C361.8 128.7 360.7 129.3 359.5 129.7C358.3 130.1 357.1 130.5 356 130.9L355.1 131.2C354.8 131.3 354.5 131.3 354.2 131.4C353.6 131.5 353 131.7 352.4 131.8C350 132.5 347.6 132.6 345.2 133C344 133.1 342.8 133.1 341.6 133.1C341 133.1 340.4 133.1 339.8 133.2C339.2 133.2 338.6 133.1 338.1 133.1C336.9 133 335.8 132.9 334.7 132.9C333.6 132.8 332.5 132.5 331.3 132.4C329.1 132.1 327 131.4 324.9 130.8C323.8 130.6 322.9 130.1 321.9 129.7C320.9 129.3 319.9 129 319 128.5C318.1 128 317.1 127.5 316.2 127.1C315.7 126.9 315.3 126.6 314.8 126.4C314.4 126.1 313.9 125.9 313.5 125.6C312.7 125.1 311.8 124.5 311 124C310.2 123.5 309.4 122.8 308.7 122.2C307.9 121.6 307.2 121 306.5 120.4C305.8 119.7 305.1 119.1 304.5 118.5C299.2 113.3 295.6 107.6 293.2 102.2C290.9 96.8 289.6 91.8 289.2 87.7C289.1 87.2 289.1 86.7 289 86.2C288.9 85.7 288.9 85.2 288.9 84.8C288.9 83.9 288.9 83 288.8 82.2C288.8 81.4 288.7 80.7 288.8 80C288.9 79.3 288.9 78.7 288.9 78.2C289 77.1 289.1 76.3 289.1 75.7C289.7 75.2 289.7 74.9 289.7 74.9C289.7 74.9 289.7 75.2 289.7 75.7C289.7 76.3 289.6 77.1 289.6 78.2C289.6 78.7 289.5 79.3 289.5 80C289.5 80.7 289.5 81.4 289.6 82.2C289.6 83 289.7 83.8 289.7 84.8C289.7 85.3 289.8 85.7 289.8 86.2C289.9 86.7 289.9 87.2 290 87.7C290.4 91.8 291.7 96.7 294 102.1C296.4 107.4 300 113.1 305.3 118.3C306 118.9 306.6 119.6 307.3 120.2C308 120.8 308.8 121.4 309.5 122C310.3 122.6 311 123.2 311.8 123.8C312.6 124.3 313.5 124.9 314.3 125.4C314.7 125.7 315.1 125.9 315.6 126.2C316.1 126.4 316.5 126.7 317 126.9C317.9 127.4 318.8 127.8 319.8 128.3C320.7 128.7 321.7 129.1 322.7 129.5C323.7 129.9 324.7 130.3 325.7 130.6C327.8 131.2 329.9 131.9 332.1 132.1C333.2 132.3 334.3 132.5 335.4 132.6C336.5 132.7 337.7 132.8 338.8 132.8C339.4 132.8 339.9 132.9 340.5 132.9C341.1 132.9 341.7 132.9 342.2 132.8C343.4 132.7 344.5 132.8 345.7 132.7C348 132.4 350.4 132.2 352.8 131.5C353.4 131.4 354 131.2 354.6 131.1C354.9 131 355.2 131 355.5 130.9L356.4 130.6C357.6 130.2 358.7 129.8 359.9 129.4C361.1 128.9 362.2 128.4 363.3 127.9C363.9 127.6 364.5 127.4 365 127.1L366.6 126.2C368.9 125 370.9 123.5 373 122C374 121.2 375 120.3 376 119.4L376.7 118.8L377.4 118.1L378.8 116.7L380.2 115.3L381.4 113.7L382.6 112.1L383.2 111.3L383.7 110.5C384.4 109.4 385.2 108.2 385.9 107.1C386.5 105.9 387.1 104.7 387.8 103.5C390.1 98.6 391.7 93.2 392.4 87.6C393 82 392.8 76.5 391.7 71.1C391.4 69.8 391.1 68.5 390.8 67.1C390.4 65.8 389.9 64.5 389.5 63.3C389.4 63 389.3 62.7 389.2 62.3L388.8 61.4L388 59.6L387.2 57.8L386.2 56.1L385.2 54.4L384.7 53.5L384.1 52.7C383.3 51.6 382.6 50.6 381.8 49.5C380.1 47.5 378.5 45.5 376.6 43.8L375.2 42.5C374.7 42.1 374.2 41.7 373.7 41.3C372.7 40.5 371.8 39.7 370.7 39C369.7 38.3 368.6 37.7 367.6 37L366.8 36.5C366.5 36.3 366.3 36.2 366 36.1C365.5 35.8 364.9 35.5 364.4 35.3C362.3 34.1 360 33.4 357.8 32.5C356.7 32.1 355.5 31.8 354.4 31.5C353.8 31.3 353.3 31.2 352.7 31C352.1 30.9 351.6 30.8 351 30.7C349.9 30.5 348.7 30.3 347.6 30.1C346.5 29.9 345.4 29.9 344.2 29.8C342 29.5 339.8 29.7 337.6 29.8C336.5 29.8 335.5 30 334.4 30.1C333.4 30.3 332.3 30.3 331.3 30.5C330.3 30.7 329.3 31 328.3 31.2C327.8 31.3 327.3 31.4 326.8 31.5C326.3 31.6 325.8 31.8 325.4 32C324.5 32.3 323.5 32.6 322.6 33C321.7 33.3 320.8 33.8 319.9 34.1C319 34.5 318.1 34.9 317.3 35.3C316.5 35.8 315.7 36.2 314.9 36.7C308.5 40.4 303.6 45.1 300.1 49.7C296.6 54.3 294.1 58.8 292.7 62.7C292.5 63.2 292.3 63.6 292.1 64.1C291.9 64.5 291.7 65 291.6 65.4C291.4 66.3 291.1 67.1 290.9 67.9C290.7 68.7 290.5 69.4 290.3 70C290.2 70.7 290.1 71.3 290 71.8C289.8 72.9 289.7 73.7 289.6 74.2C289.8 74.6 289.7 74.9 289.7 74.9Z" fill="#263238"/>
<path d="M132.7 92C132.7 92.1 132.1 92.1 131.1 92.6C130.2 93.1 128.9 94.1 128 95.7C127.6 96.5 127.2 97.5 127.2 98.7C127.2 99.8 127.4 101 128.1 102.1C129.3 104.2 132 105.9 134.9 105.6C137.8 105.2 139.9 102.8 140.5 100.4C140.8 99.2 140.8 98 140.4 96.9C140.1 95.8 139.5 95 138.8 94.3C137.5 92.9 136 92.3 134.9 92.1C133.8 91.9 133.2 92 133.2 91.9C133.2 91.9 133.3 91.9 133.6 91.8C133.7 91.8 133.9 91.8 134.1 91.8C134.3 91.8 134.6 91.8 134.8 91.9C135.9 92 137.5 92.6 138.9 94C139.6 94.7 140.2 95.6 140.6 96.7C141 97.8 141.1 99.1 140.7 100.4C140.4 101.7 139.7 103 138.6 104C137.6 105 136.2 105.8 134.7 106C133.2 106.2 131.6 105.8 130.4 105.1C129.1 104.4 128.1 103.4 127.4 102.2C126.7 101.1 126.5 99.8 126.5 98.6C126.6 97.4 126.9 96.4 127.4 95.5C128.4 93.8 129.8 92.8 130.8 92.3C131 92.2 131.3 92.1 131.5 92C131.7 91.9 131.9 91.9 132 91.9C132.5 92 132.7 92 132.7 92Z" fill="#263238"/>
<path d="M151.6 108.2C151.6 108.2 151.2 108.3 150.6 108.6C150 108.9 149.2 109.5 148.7 110.6C148.1 111.6 147.9 113.2 148.8 114.5C149.6 115.8 151.2 116.9 153 116.6C154.8 116.3 156.1 114.9 156.5 113.4C156.9 111.9 156.3 110.5 155.5 109.6C154.7 108.7 153.8 108.4 153.1 108.2C152.4 108.1 152.1 108.1 152.1 108.1C152.1 108.1 152.5 108 153.2 108C153.9 108.1 154.9 108.4 155.8 109.3C156.2 109.7 156.7 110.3 156.9 111C157.1 111.7 157.2 112.6 157 113.4C156.6 115 155.2 116.7 153.1 117C151.1 117.3 149.3 116.1 148.4 114.6C148 113.9 147.8 113 147.8 112.3C147.8 111.5 148.1 110.9 148.4 110.3C149 109.2 149.9 108.6 150.6 108.3C151.2 108.2 151.6 108.2 151.6 108.2Z" fill="#263238"/>
<path d="M77.9 53.3H74.7L67.7 43.5V37C67.7 37 62.7 36.7 63.3 45.1C63.9 53.5 63.3 51.4 63.3 51.4C63.3 51.4 52.7 51.4 51.8 52.4C51.2 53.1 50.9 63.6 50.8 69.3C50.7 72.2 52.5 74.8 55.2 75.5C55.6 75.6 56 75.7 56.3 75.7C58.9 75.7 72.5 73.6 72.5 73.6H78.1V53.3H77.9Z" fill="#C63882"/>
<path d="M87.1 51.5L85.1 73.6H79.6V52L87.1 51.5Z" fill="#C63882"/>
<path d="M126.9 56.4C126.9 56.4 126.9 56.1 126.8 55.5C126.8 54.9 126.7 54 126.6 52.8C126.6 52.2 126.5 51.6 126.5 50.8C126.4 50.1 126.3 49.3 126.1 48.5C126 47.7 125.8 46.7 125.7 45.8C125.6 45.3 125.5 44.8 125.4 44.3C125.3 43.8 125.1 43.3 125 42.7C124 38.4 122 33.2 118.8 27.8C115.6 22.4 110.9 16.7 104.6 11.9C103.8 11.3 103 10.7 102.2 10.1C101.4 9.50002 100.5 9.00002 99.6 8.50002C99.2 8.20002 98.7 8.00002 98.3 7.70002C97.9 7.40002 97.4 7.10002 96.9 6.90002C95.9 6.40002 95 6.00002 94 5.50002C93.5 5.30002 93 5.00002 92.5 4.80002C92 4.60002 91.5 4.40002 90.9 4.20002C89.9 3.80002 88.8 3.40002 87.8 3.10002C86.7 2.70002 85.6 2.50002 84.5 2.20002C83.9 2.10002 83.4 1.90002 82.8 1.80002C82.5 1.70002 82.2 1.60002 82 1.60002L81.1 1.50002C78.8 1.20002 76.5 0.700024 74 0.700024C72.8 0.700024 71.6 0.500024 70.4 0.600024C69.2 0.700024 67.9 0.700024 66.7 0.800024C66.1 0.800024 65.5 0.800024 64.8 0.900024C64.2 1.00002 63.6 1.10002 62.9 1.20002C61.7 1.40002 60.4 1.60002 59.1 1.80002C56.6 2.50002 54.1 3.00002 51.6 4.00002C51 4.20002 50.4 4.50002 49.7 4.70002C49.4 4.80002 49.1 4.90002 48.8 5.00002L48 5.30002C46.8 5.90002 45.6 6.50002 44.4 7.00002C43.2 7.60002 42.1 8.40003 40.9 9.10003C40.3 9.50002 39.7 9.80002 39.2 10.2L37.6 11.4C35.3 13 33.3 14.9 31.3 16.8C30.4 17.8 29.4 18.9 28.5 19.9L27.8 20.7C27.6 21 27.4 21.3 27.2 21.5L25.9 23.2L24.5 25L23.4 26.8L22.3 28.7L21.7 29.6C21.5 29.9 21.4 30.3 21.2 30.6C20.6 31.9 19.9 33.2 19.3 34.5C18.8 35.9 18.3 37.3 17.8 38.6C16 44.2 15 50.2 14.9 56.2C15 62.3 16 68.2 17.8 73.8C18.3 75.2 18.8 76.6 19.3 77.9C19.9 79.2 20.6 80.5 21.2 81.8L21.7 82.8L22.3 83.7L23.4 85.6L24.5 87.4L25.8 89.1L27.1 90.8L27.7 91.7L28.4 92.5C29.4 93.5 30.3 94.6 31.2 95.6C33.3 97.5 35.3 99.4 37.5 101L39.1 102.2C39.6 102.6 40.3 102.9 40.8 103.3C42 104 43.1 104.7 44.3 105.4C45.5 106 46.7 106.6 47.9 107.1L48.8 107.5C49.1 107.6 49.4 107.7 49.7 107.8C50.3 108 50.9 108.3 51.6 108.5C54 109.5 56.6 110 59.1 110.7C60.4 111 61.6 111.1 62.9 111.3C63.5 111.4 64.1 111.5 64.8 111.6C65.4 111.7 66 111.7 66.7 111.7C67.9 111.8 69.2 111.8 70.4 111.9C71.6 111.9 72.8 111.8 74 111.8C76.4 111.8 78.8 111.3 81.1 111L82 110.9C82.3 110.8 82.6 110.8 82.8 110.7C83.4 110.6 83.9 110.4 84.5 110.3C85.6 110 86.7 109.8 87.8 109.4C88.9 109 89.9 108.6 90.9 108.3C91.4 108.1 91.9 107.9 92.5 107.7C93 107.5 93.5 107.2 94 107C95 106.5 95.9 106.1 96.9 105.6C97.4 105.4 97.8 105.1 98.3 104.8C98.7 104.5 99.2 104.3 99.6 104C100.5 103.5 101.4 102.9 102.2 102.4C103 101.8 103.8 101.2 104.6 100.6C110.9 95.8 115.6 90.1 118.8 84.7C119.2 84 119.6 83.4 120 82.7C120.3 82 120.7 81.3 121 80.7C121.3 80 121.6 79.4 121.9 78.8C122 78.5 122.2 78.2 122.3 77.9C122.4 77.6 122.5 77.3 122.7 76.9C123.2 75.6 123.6 74.4 124 73.3C124.4 72.1 124.6 71 124.9 69.9C125 69.4 125.2 68.8 125.3 68.3C125.4 67.8 125.6 67.3 125.6 66.8C125.8 65.8 125.9 64.9 126 64.1C126.1 63.3 126.3 62.5 126.4 61.8C126.4 61.1 126.5 60.4 126.5 59.8C126.6 58.6 126.6 57.7 126.7 57.1C126.9 56.7 126.9 56.4 126.9 56.4C126.9 56.4 126.9 56.7 126.9 57.3C126.9 57.9 126.8 58.8 126.8 60C126.8 60.6 126.7 61.2 126.7 62C126.6 62.7 126.5 63.5 126.4 64.4C126.3 65.3 126.1 66.2 126 67.1C125.9 67.6 125.8 68.1 125.7 68.6C125.6 69.1 125.4 69.6 125.3 70.2C125 71.3 124.8 72.4 124.4 73.6C124 74.8 123.5 76 123.1 77.3C123 77.6 122.9 77.9 122.7 78.3C122.6 78.6 122.4 78.9 122.3 79.3C122 79.9 121.7 80.6 121.4 81.3C121.1 82 120.8 82.6 120.4 83.3C120 84 119.6 84.6 119.2 85.3C116 90.8 111.3 96.5 104.9 101.3C104.1 101.9 103.3 102.5 102.5 103.1C101.6 103.7 100.7 104.2 99.9 104.7C99.5 105 99 105.2 98.6 105.5C98.1 105.8 97.7 106.1 97.2 106.3C96.2 106.8 95.3 107.2 94.3 107.7C93.8 107.9 93.3 108.2 92.8 108.4C92.3 108.6 91.8 108.8 91.2 109C90.2 109.4 89.1 109.8 88 110.2C86.9 110.6 85.8 110.8 84.7 111.1C84.1 111.2 83.6 111.4 83 111.5C82.7 111.6 82.4 111.7 82.1 111.7L81.2 111.8C78.9 112.1 76.5 112.6 74.1 112.6C72.9 112.6 71.7 112.8 70.4 112.7C69.2 112.6 67.9 112.6 66.7 112.5C66.1 112.5 65.4 112.5 64.8 112.4C64.2 112.3 63.5 112.2 62.9 112.1C61.6 111.9 60.4 111.7 59.1 111.5C56.6 110.8 54 110.3 51.6 109.3C51 109.1 50.4 108.8 49.7 108.6C49.4 108.5 49.1 108.4 48.8 108.2L47.9 107.8C46.7 107.2 45.5 106.6 44.3 106C43.1 105.4 42 104.6 40.8 103.9C40.2 103.5 39.6 103.2 39.1 102.8L37.4 101.6C35.1 100 33.1 98.1 31 96.2C30 95.2 29.1 94.1 28.1 93L27.4 92.2L26.8 91.3L25.5 89.6L24 88L22.9 86.1L21.8 84.2L21.2 83.3L20.7 82.3C20.1 81 19.4 79.7 18.8 78.3C18.3 76.9 17.8 75.5 17.3 74.1C15.5 68.4 14.5 62.4 14.4 56.3C14.5 50.2 15.5 44.2 17.3 38.5C17.8 37.1 18.3 35.7 18.8 34.3C19.4 33 20.1 31.6 20.7 30.3C20.9 30 21 29.6 21.2 29.3L21.8 28.4L22.9 26.5L24 24.6L25.3 22.9L26.6 21.2C26.8 20.9 27 20.6 27.2 20.3L27.9 19.5C28.9 18.4 29.8 17.4 30.8 16.3C32.9 14.4 34.9 12.4 37.2 10.9L38.9 9.70002C39.5 9.30002 40.1 9.00002 40.6 8.60003C41.9 8.00002 43 7.30002 44.2 6.60002C45.4 6.00002 46.6 5.40002 47.8 4.80002L48.7 4.40002C49 4.30002 49.3 4.20002 49.6 4.00002C50.2 3.80002 50.8 3.50002 51.5 3.30002C54 2.30002 56.5 1.80002 59 1.10002C60.3 0.800024 61.5 0.700024 62.8 0.500024C63.4 0.400024 64.1 0.300024 64.7 0.200024C65.3 0.100024 66 0.100024 66.6 0.100024C67.9 2.44156e-05 69.1 2.44156e-05 70.3 -0.0999756C71.5 -0.0999756 72.8 2.44156e-05 74 2.44156e-05C76.4 2.44156e-05 78.8 0.500024 81.1 0.800024L82 1.10002C82.3 1.20002 82.6 1.20002 82.9 1.30002C83.5 1.40002 84 1.60002 84.6 1.70002C85.7 2.00002 86.8 2.20002 87.9 2.60002C89 3.10002 90 3.40002 91.1 3.80002C91.6 4.00002 92.1 4.20002 92.7 4.40002C93.2 4.60002 93.7 4.90002 94.2 5.10002C95.2 5.60002 96.2 6.00002 97.1 6.50002C97.5 6.70002 98 7.00002 98.4 7.30002C98.9 7.60002 99.3 7.80002 99.7 8.10003C100.6 8.70003 101.5 9.20002 102.3 9.70002C103.1 10.3 103.9 10.9 104.7 11.5C111.1 16.4 115.7 22.1 119 27.5C122.2 33 124.2 38.1 125.2 42.5C125.3 43 125.5 43.6 125.6 44.1C125.7 44.6 125.9 45.1 125.9 45.6C126 46.6 126.2 47.5 126.3 48.3C126.4 49.2 126.6 49.9 126.6 50.7C126.6 51.4 126.7 52.1 126.7 52.7C126.7 53.9 126.8 54.8 126.8 55.4C126.9 56 126.9 56.4 126.9 56.4Z" fill="#263238"/>
<path d="M216.7 75.9C215.8 75.9 215.2 75.2 215.2 74.4L215.5 61C215.5 60.5 215.7 60.1 216.1 59.8C216.5 59.5 217 59.4 217.4 59.6C219.8 60.3 222.5 60 224.9 58.7C227.1 57.5 228.6 55.5 229.1 53.3C229.6 51.1 229.1 48.6 227.7 46.5C226.2 44.2 224 42.6 221.5 42.2C216.6 41.3 211.2 44.6 209.5 49.5C209.2 50.3 208.4 50.7 207.6 50.4C206.8 50.1 206.4 49.3 206.7 48.5C208.9 42.2 215.8 38.1 222.1 39.2C225.3 39.8 228.3 41.8 230.3 44.8C232.1 47.6 232.8 50.9 232.1 53.9C231.4 56.9 229.3 59.6 226.4 61.2C223.9 62.6 221.1 63.2 218.4 62.8L218.1 74.3C218.2 75.2 217.5 75.9 216.7 75.9Z" fill="#263238"/>
<path d="M219 82.4999C219 83.6999 218 84.6999 216.8 84.6999C215.6 84.6999 214.6 83.6999 214.6 82.4999C214.6 81.2999 215.6 80.2999 216.8 80.2999C218 80.2999 219 81.1999 219 82.4999Z" fill="#263238"/>
<path d="M52.6 229.8C50.3 229.8 48.1 229.1 46.3 227.8C44.2 226.2 42.8 223.7 42.5 220.9C42.2 218.3 42.9 215.7 44.5 213.8C46.1 211.9 48.5 210.7 51.2 210.6C53.3 210.5 55.4 211 57.1 212.1L61.1 204.6C61.5 203.9 62.4 203.6 63.1 204C63.8 204.4 64.1 205.3 63.7 206L58.9 215.1C58.7 215.5 58.3 215.8 57.8 215.9C57.3 216 56.9 215.8 56.5 215.5C55.2 214.2 53.3 213.6 51.3 213.7C49.5 213.8 47.8 214.6 46.8 215.9C45.8 217.2 45.3 218.9 45.5 220.8C45.7 222.8 46.7 224.5 48.2 225.6C51.1 227.8 55.8 227.3 58.5 224.7C59.1 224.1 60 224.1 60.6 224.7C61.2 225.3 61.2 226.2 60.6 226.8C58.4 228.7 55.5 229.8 52.6 229.8Z" fill="#263238"/>
<path d="M63.4999 198.8C63.8999 198 64.8999 197.6 65.7999 198C66.5999 198.4 66.9999 199.4 66.5999 200.3C66.1999 201.1 65.1999 201.5 64.2999 201.1C63.3999 200.7 62.9999 199.7 63.4999 198.8Z" fill="#263238"/>
<path d="M355.3 204.5C354.8 204.5 354.4 204.3 354.1 203.9L348.1 195.6C347.8 195.2 347.7 194.7 347.9 194.3C348 193.9 348.4 193.5 348.8 193.3C350.5 192.7 352 191.3 352.7 189.4C353.4 187.7 353.4 185.9 352.8 184.4C352.1 182.9 350.8 181.7 349 181.1C347.1 180.4 345.1 180.5 343.5 181.3C340.3 182.9 338.6 187.3 339.7 190.9C340 191.7 339.5 192.5 338.7 192.8C337.9 193.1 337.1 192.6 336.8 191.8C335.2 186.8 337.5 180.9 342.1 178.6C344.4 177.4 347.3 177.3 350 178.2C352.5 179.1 354.5 180.9 355.5 183.1C356.5 185.4 356.5 188 355.5 190.5C354.7 192.5 353.3 194.1 351.6 195.2L356.6 202.1C357.1 202.8 356.9 203.7 356.3 204.2C355.9 204.4 355.6 204.5 355.3 204.5Z" fill="#263238"/>
<path d="M360.5 206.9C361.1 207.6 360.9 208.7 360.2 209.3C359.5 209.9 358.4 209.7 357.8 209C357.2 208.3 357.4 207.2 358.1 206.6C358.9 206 359.9 206.2 360.5 206.9Z" fill="#263238"/>
</g>
<defs>
<clipPath id="clip0_27_1827">
<rect width="393.3" height="428.6" fill="white"/>
</clipPath>
</defs>
</svg>
